<?xml version="1.0" encoding="iso-8859-1"?>
<!-- Generator: Adobe Illustrator 19.0.0, SVG Export Plug-In . SVG Version: 6.00 Build 0)  -->
<svg version="1.1" id="Capa_1" xmlns="http://www.w3.org/2000/svg" xmlns:xlink="http://www.w3.org/1999/xlink" x="0px" y="0px"
	 viewBox="0 0 468.917 468.917" style="enable-background:new 0 0 468.917 468.917;" xml:space="preserve">
<path style="fill:#64798A;" d="M59.629,65.561l174.829,349.034L409.288,65.561H59.629z M90.224,84.293h288.468L234.459,372.761
	L90.224,84.293z"/>
<circle style="fill:#27A2DB;" cx="75.239" cy="74.927" r="74.927"/>
<path style="fill:#E56353;" d="M393.678,0c-41.21,0-74.927,33.717-74.927,74.927s33.717,74.927,74.927,74.927
	s74.927-33.717,74.927-74.927S434.888,0,393.678,0z"/>
<path style="fill:#FCD462;" d="M234.459,319.063c-41.21,0-74.927,33.717-74.927,74.927s33.717,74.927,74.927,74.927
	s74.927-33.717,74.927-74.927C309.385,352.156,275.668,319.063,234.459,319.063z"/>
<g>
</g>
<g>
</g>
<g>
</g>
<g>
</g>
<g>
</g>
<g>
</g>
<g>
</g>
<g>
</g>
<g>
</g>
<g>
</g>
<g>
</g>
<g>
</g>
<g>
</g>
<g>
</g>
<g>
</g>
</svg>
